# xmcd
# 
# Track frame offsets:
#     183
#     6220
#     31043
#     44800
#     54923
#     69640
#     90125
#     99530
#     113363
#     129650
#     152070
#     170178
#     189973
#     195150
#     204228
#     221523
# 
# Disc length: 3190
# 
# Revision: 4
# Processed by: cddbd v1.5.2PL0 Copyright (c) Steve Scherf et al.
# Submitted via: fre:ac v1.0.17
# 
DISCID=c80c7410
DTITLE=Wings - Venus And Mars
DYEAR=1975
DGENRE=Rock
TTITLE0=Venus And Mars
TTITLE1=Rock Show
TTITLE2=Love In Song
TTITLE3=You Gave Me The Answer
TTITLE4=Magneto And Titanium Man
TTITLE5=Letting Go
TTITLE6=Venus And Mars -Reprise
TTITLE7=Spirits Of Ancient Egypt
TTITLE8=Medicine Jar
TTITLE9=Call Me Back Again
TTITLE10=Listen To What The Man Said
TTITLE11=Treat Her Gently -Lonely Old People
TTITLE12=Crossroads
TTITLE13=Zoo Gang *
TTITLE14=Lunch Box/Odd Sox *
TTITLE15=My Carnival *
EXTD=
EXTT0=
EXTT1=
EXTT2=
EXTT3=
EXTT4=
EXTT5=
EXTT6=
EXTT7=
EXTT8=
EXTT9=
EXTT10=
EXTT11=
EXTT12=
EXTT13=
EXTT14=
EXTT15=
PLAYORDER=
